<svg width="512" height="448" viewBox="0 0 512 448" fill="none" xmlns="http://www.w3.org/2000/svg">
<path d="M241.5 48C259.2 48 256.5 41.7 256.5 24C256.5 6.3 259.2 0 241.5 0H96C43 0 0 43 0 96V352C0 405 43 448 96 448H241.5C259.2 448 256.5 441.7 256.5 424C256.5 406.3 259.2 398.5 241.5 398.5H92.5C74.8 398.5 52 369.7 52 352V92C52 74.3 78.3 48 96 48H241.5ZM504.5 241.4C509.3 236.9 512 230.6 512 224C512 217.4 509.3 211.1 504.5 206.6L370.5 28.5C363.5 21.9 343.3 20.2 334.5 24C325.7 27.8 320 38.5 320 48V137H192C174.3 137 129 136.3 129 154V304C129 321.7 174.3 319 192 319H320V398.5C320 408.1 325.7 415.7 334.5 419.5C343.3 423.3 363.5 418.6 370.5 412L504.5 241.4Z" fill="black"/>
</svg>
